<svg xmlns="http://www.w3.org/2000/svg" width="32" height="32" viewBox="0 0 32 32">
  <defs>
    <linearGradient id="shieldGrad" x1="0%" y1="0%" x2="100%" y2="100%">
      <stop offset="0%" style="stop-color:#3b82f6"/>
      <stop offset="100%" style="stop-color:#1d4ed8"/>
    </linearGradient>
  </defs>
  <!-- Shield body -->
  <path d="M16 2 L28 7 L28 15 C28 22 22.5 27.5 16 30 C9.5 27.5 4 22 4 15 L4 7 Z" fill="url(#shieldGrad)" stroke="#1e40af" stroke-width="0.5"/>
  <path d="M16 6 L24 9.5 L24 15 C24 20.2 20 24.5 16 26.5 C12 24.5 8 20.2 8 15 L8 9.5 Z" fill="#1e3a5f" opacity="0.2"/>
  <!-- Lock shackle -->
  <path d="M12.5 14.5 L12.5 12.5 C12.5 10.5 14 9 16 9 C18 9 19.5 10.5 19.5 12.5 L19.5 14.5" fill="none" stroke="white" stroke-width="1.8" stroke-linecap="round"/>
  <!-- Lock body -->
  <rect x="11" y="14" width="10" height="7.5" rx="1.5" fill="white"/>
  <!-- Keyhole -->
  <circle cx="16" cy="17" r="1.3" fill="#2563eb"/>
  <rect x="15.4" y="17.8" width="1.2" height="2" rx="0.4" fill="#2563eb"/>
</svg>